<svg width="24" height="24" viewBox="0 0 24 24" fill="none" xmlns="http://www.w3.org/2000/svg">
<path d="M11.3374 7.86856L6.25821 5.43897L8.6878 0.359788" stroke="black"/>
<path d="M7.63915 8.88223L2.55997 6.45264L4.98956 1.37346" stroke="black"/>
<path d="M2.71951 11.6123C2.33361 13.6815 2.66191 15.8205 3.65064 17.6788C4.63936 19.5371 6.22988 21.0045 8.16164 21.8406C10.0934 22.6768 12.2518 22.8321 14.2834 22.2811C16.3149 21.73 18.0991 20.5054 19.3437 18.8078C20.5882 17.1102 21.2193 15.0402 21.1336 12.937C21.0479 10.8338 20.2504 8.8221 18.8719 7.23139C17.4933 5.64068 15.6154 4.56532 13.5457 4.18147C11.4761 3.79762 9.33741 4.12804 7.4801 5.1186" stroke="black" stroke-linecap="round"/>
<path d="M9.85449 9.61133L9.85449 16.6816L8.77051 16.6816L8.77051 10.6855L8.73145 10.6855L7.04199 11.7891L7.04199 10.7637L8.7998 9.61133L9.85449 9.61133ZM13.9123 16.7793C12.2766 16.7793 11.3146 15.4609 11.3146 13.1465C11.3146 10.8467 12.2863 9.51367 13.9123 9.51367C15.5334 9.51367 16.5051 10.8467 16.51 13.1465C16.5051 15.4609 15.548 16.7793 13.9123 16.7793ZM12.3889 13.1465C12.384 14.9092 12.9553 15.8516 13.9123 15.8516C14.8645 15.8516 15.4357 14.9092 15.4357 13.1465C15.4357 11.3887 14.8596 10.4268 13.9123 10.4219C12.9602 10.4268 12.3889 11.3887 12.3889 13.1465Z" fill="black"/>
</svg>
