<svg width="24" height="24" viewBox="0 0 24 24" fill="none" xmlns="http://www.w3.org/2000/svg">
<path d="M12.3657 7.86856L17.4449 5.43897L15.0153 0.359788" stroke="black"/>
<path d="M16.064 8.88223L21.1432 6.45264L18.7136 1.37346" stroke="black"/>
<path d="M20.9836 11.6123C21.3695 13.6815 21.0412 15.8205 20.0525 17.6788C19.0638 19.5371 17.4732 21.0045 15.5415 21.8406C13.6097 22.6768 11.4513 22.8321 9.41973 22.2811C7.38818 21.73 5.60399 20.5054 4.35944 18.8078C3.1149 17.1102 2.48379 15.0402 2.56951 12.937C2.65523 10.8338 3.45269 8.8221 4.83126 7.23139C6.20982 5.64068 8.08776 4.56532 10.1574 4.18147C12.2271 3.79762 14.3657 4.12804 16.223 5.1186" stroke="black" stroke-linecap="round"/>
<path d="M9.85449 9.61133L9.85449 16.6816L8.77051 16.6816L8.77051 10.6855L8.73145 10.6855L7.04199 11.7891L7.04199 10.7637L8.7998 9.61133L9.85449 9.61133ZM13.9123 16.7793C12.2766 16.7793 11.3146 15.4609 11.3146 13.1465C11.3146 10.8467 12.2863 9.51367 13.9123 9.51367C15.5334 9.51367 16.5051 10.8467 16.51 13.1465C16.5051 15.4609 15.548 16.7793 13.9123 16.7793ZM12.3889 13.1465C12.384 14.9092 12.9553 15.8516 13.9123 15.8516C14.8645 15.8516 15.4357 14.9092 15.4357 13.1465C15.4357 11.3887 14.8596 10.4268 13.9123 10.4219C12.9602 10.4268 12.3889 11.3887 12.3889 13.1465Z" fill="black"/>
</svg>
