<svg width="13" height="16" viewBox="0 0 13 16" fill="none" xmlns="http://www.w3.org/2000/svg">
<path id="Vector" d="M12.5848 5.45495C12.4922 5.52695 10.857 6.45025 10.857 8.50325C10.857 10.8779 12.9377 11.718 13 11.7388C12.9904 11.79 12.6695 12.8893 11.903 14.0094C11.2195 14.9951 10.5057 15.9792 9.41985 15.9792C8.33399 15.9792 8.05454 15.3471 6.80101 15.3471C5.57941 15.3471 5.14507 16 4.15182 16C3.15858 16 2.46554 15.0879 1.66871 13.9678C0.745732 12.6525 0 10.6091 0 8.66967C0 5.55896 2.01843 3.90919 4.00491 3.90919C5.06043 3.90919 5.9403 4.60366 6.603 4.60366C7.23376 4.60366 8.21742 3.86759 9.41825 3.86759C9.87336 3.86759 11.5085 3.90919 12.5848 5.45495ZM8.84818 2.55065C9.3448 1.9602 9.69611 1.14091 9.69611 0.321632C9.69611 0.208021 9.68652 0.0928093 9.66577 0C8.85776 0.030403 7.89645 0.539254 7.31679 1.21292C6.86169 1.73137 6.43692 2.55066 6.43692 3.38114C6.43692 3.50595 6.45768 3.63076 6.46726 3.67077C6.51836 3.68037 6.6014 3.69157 6.68444 3.69157C7.40941 3.69157 8.32121 3.20512 8.84818 2.55065Z" fill="black"/>
</svg>
