<svg width="25" height="20" viewBox="0 0 25 20" fill="none" xmlns="http://www.w3.org/2000/svg">
<rect x="1" y="1" width="23" height="18" rx="2.5" stroke="black"/>
<path d="M8.89062 14.1699C6.78516 14.1699 5.5 12.5703 5.5 10.3418C5.5 8.08594 6.83984 6.5 8.86328 6.5C10.4492 6.5 11.625 7.42969 11.8164 8.83789H10.6406C10.4766 8.1543 9.875 7.53906 8.89062 7.53906C7.56445 7.53906 6.67578 8.63281 6.67578 10.3008C6.67578 12.0234 7.53711 13.1172 8.89062 13.1172C9.76562 13.1172 10.4355 12.6523 10.6406 11.832H11.8164C11.625 13.1582 10.5449 14.1699 8.89062 14.1699Z" fill="black"/>
<path d="M16.8906 14.1699C14.7852 14.1699 13.5 12.5703 13.5 10.3418C13.5 8.08594 14.8398 6.5 16.8633 6.5C18.4492 6.5 19.625 7.42969 19.8164 8.83789H18.6406C18.4766 8.1543 17.875 7.53906 16.8906 7.53906C15.5645 7.53906 14.6758 8.63281 14.6758 10.3008C14.6758 12.0234 15.5371 13.1172 16.8906 13.1172C17.7656 13.1172 18.4355 12.6523 18.6406 11.832H19.8164C19.625 13.1582 18.5449 14.1699 16.8906 14.1699Z" fill="black"/>
</svg>
