<svg width="120" height="120" viewBox="0 0 120 120" fill="none" xmlns="http://www.w3.org/2000/svg">
<g id="Group 8875">
<circle id="Ellipse 7" cx="60" cy="60" r="60" fill="#A4D5D3"/>
<rect id="Rectangle 4357" x="23.8643" y="39.5254" width="72.2714" height="12.5255" rx="3" fill="#A4D5D3" stroke="white" stroke-width="4"/>
<path id="Rectangle 4358" d="M30 53H91V91C91 92.6569 89.6569 94 88 94H33C31.3431 94 30 92.6569 30 91V53Z" fill="#A4D5D3" stroke="white" stroke-width="4"/>
<path id="Ellipse 9" d="M49.8688 26.5772C49.1974 27.3082 48.8739 28.5868 49.2257 30.3431C49.5736 32.0797 50.5583 34.0637 52.1609 35.8084C53.7635 37.553 55.5859 38.6249 57.1811 39.0037C58.7944 39.3867 59.9689 39.0346 60.6404 38.3036C61.3119 37.5726 61.6354 36.2939 61.2836 34.5376C60.9356 32.801 59.951 30.817 58.3484 29.0724C56.7458 27.3277 54.9233 26.2558 53.3281 25.877C51.7148 25.494 50.5403 25.8462 49.8688 26.5772Z" fill="white" stroke="white" stroke-width="3"/>
<path id="Ellipse 10" d="M60.0388 38.3037C59.3673 37.5727 59.0438 36.294 59.3956 34.5378C59.7435 32.8012 60.7282 30.8171 62.3308 29.0725C63.9334 27.3278 65.7559 26.2559 67.351 25.8772C68.9643 25.4941 70.1389 25.8463 70.8103 26.5773C71.4818 27.3083 71.8053 28.5869 71.4535 30.3432C71.1056 32.0798 70.1209 34.0638 68.5183 35.8085C66.9157 37.5532 65.0933 38.6251 63.4981 39.0038C61.8848 39.3869 60.7102 39.0347 60.0388 38.3037Z" fill="white" stroke="white" stroke-width="3"/>
<rect id="Rectangle 4359" x="54.373" y="39.5254" width="11.2543" height="54.4747" fill="#A4D5D3" stroke="white" stroke-width="4"/>
</g>
</svg>
