<svg width="83" height="98" viewBox="0 0 83 98" fill="none" xmlns="http://www.w3.org/2000/svg">
<g id="Frame 8717">
<path id="Polygon 4" d="M38.9194 18.3528C40.0815 16.3927 42.9185 16.3927 44.0806 18.3528L80.3144 79.4701C81.5 81.4699 80.0587 84 77.7338 84H5.26617C2.94134 84 1.5 81.4699 2.68559 79.4701L38.9194 18.3528Z" fill="#E0E0E0"/>
<g id="Group 8737">
<path id="Rectangle 3988" d="M38.3731 42.7314C38.3334 42.3336 38.3135 42.1347 38.3151 41.9702C38.3302 40.4518 39.4774 39.1841 40.9868 39.018C41.1504 39 41.3503 39 41.75 39C42.1497 39 42.3496 39 42.5132 39.018C44.0226 39.1841 45.1698 40.4518 45.1849 41.9702C45.1865 42.1347 45.1666 42.3336 45.1269 42.7314L43.1244 62.7562C43.0921 63.0787 43.076 63.2399 43.0236 63.371C42.9091 63.6577 42.6685 63.8755 42.3718 63.9609C42.2361 64 42.0741 64 41.75 64C41.4259 64 41.2639 64 41.1282 63.9609C40.8315 63.8755 40.5909 63.6577 40.4764 63.371C40.424 63.2399 40.4079 63.0787 40.3756 62.7562L38.3731 42.7314Z" fill="white"/>
<circle id="Ellipse 117" cx="42" cy="71.5" r="3.5" fill="white"/>
</g>
</g>
</svg>
