<svg width="154" height="209" viewBox="0 0 154 209" fill="none" xmlns="http://www.w3.org/2000/svg">
<rect width="154" height="154" rx="20" fill="black"/>
<path d="M76.9101 47.1119L47.004 77.012L39.5305 69.5385C31.2708 61.2787 31.2708 47.8924 39.5305 39.6324C43.6602 35.5024 49.0689 33.4375 54.4775 33.4375C59.8862 33.4375 65.3005 35.5024 69.4306 39.6324L76.9101 47.1119Z" fill="#D1D1D1"/>
<path d="M114.283 84.4857C122.543 92.7454 122.543 106.132 114.283 114.391C110.159 118.521 104.745 120.586 99.3363 120.586C93.9276 120.586 88.5133 118.521 84.3833 114.391L47.0037 77.0122L76.9097 47.1121L84.3833 39.6326C92.643 31.3728 106.029 31.3728 114.283 39.6326C118.413 43.7626 120.478 49.1709 120.478 54.5856C120.478 60.0003 118.413 65.4086 114.283 69.5386L106.809 77.0122L114.283 84.4857Z" fill="white"/>
<path d="M76.9101 106.918L69.4306 114.391C61.1708 122.651 47.7846 122.651 39.5308 114.391C35.4008 110.261 33.3359 104.853 33.3359 99.4383C33.3359 94.0236 35.4008 88.6153 39.5308 84.4852L47.0043 77.0117L76.9104 106.918H76.9101Z" fill="#A8A8A8"/>
<path d="M24.441 191.562L13.4929 175H28.87L34.0455 185.034L39.619 175H53.6525L42.0077 191.562L54.5482 209H39.0716L32.5525 197.504L26.4813 209H12L24.441 191.562Z" fill="black"/>
<path d="M56.0316 175H69.3684V209H56.0316V175Z" fill="black"/>
<path d="M83.0991 209L70.7079 175H84.9901L91.4595 195.361H91.559L98.0781 175H111.713L98.8743 209H83.0991Z" fill="black"/>
<path d="M112.544 209V175H142.652V183.183H125.583V188.006H141.905V196.189H125.583V200.817H143V209H112.544Z" fill="black"/>
</svg>
