<svg width="114" height="166" viewBox="0 0 114 166" fill="none" xmlns="http://www.w3.org/2000/svg">
<g id="Group 8682">
<g id="XIVE">
<path d="M12.3229 150.393L2.93378 135.66H16.1213L20.5598 144.586L25.3397 135.66H37.3749L27.3883 150.393L38.1431 165.907H24.8703L19.2794 155.68L14.0727 165.907H1.65344L12.3229 150.393Z" fill="#FAFAFA"/>
<path d="M39.4152 135.66H50.853V165.907H39.4152V135.66Z" fill="#FAFAFA"/>
<path d="M62.6285 165.907L52.0017 135.66H64.2503L69.7984 153.773H69.8838L75.4746 135.66H87.1684L76.1575 165.907H62.6285Z" fill="#FAFAFA"/>
<path d="M87.881 165.907V135.66H113.701V142.94H99.0627V147.23H113.061V154.51H99.0627V158.627H114V165.907H87.881Z" fill="#FAFAFA"/>
</g>
<g id="Vector">
<path d="M57.0643 17.6604L18.5085 56.2057L8.87349 46.5713C-1.77521 35.9233 -1.77521 18.6666 8.87349 8.01829C14.1976 2.69412 21.1706 0.0322266 28.1436 0.0322266C35.1166 0.0322266 42.0969 2.69412 47.4215 8.01829L57.0643 17.6604Z" fill="#D1D1D1"/>
<path d="M105.247 65.8401C115.896 76.488 115.896 93.7447 105.247 104.393C99.9302 109.717 92.9498 112.379 85.9768 112.379C79.0039 112.379 72.0235 109.717 66.699 104.393L18.5085 56.2057L57.0643 17.6604L66.699 8.01829C77.3477 -2.62966 94.6056 -2.62966 105.247 8.01829C110.571 13.3425 113.233 20.3146 113.233 27.2948C113.233 34.275 110.571 41.2471 105.247 46.5713L95.6115 56.2057L105.247 65.8401Z" fill="white"/>
<path d="M57.0643 94.7583L47.4215 104.393C36.7728 115.041 19.5148 115.041 8.87387 104.393C3.54933 99.0685 0.88725 92.0964 0.88725 85.1162C0.88725 78.1359 3.54933 71.1638 8.87387 65.8397L18.5085 56.2057L57.0643 94.7583Z" fill="#A8A8A8"/>
</g>
</g>
</svg>
