<svg width="20" height="20" viewBox="0 0 20 20" fill="none" xmlns="http://www.w3.org/2000/svg">
<g opacity="0.5">
<path d="M10.0007 3.13819L3.13701 10L1.42177 8.28492C-0.473922 6.38937 -0.473922 3.31731 1.42177 1.42168C2.36958 0.473872 3.61091 0 4.85225 0C6.09358 0 7.33623 0.473872 8.28411 1.42168L10.0007 3.13819Z" fill="#D1D1D1"/>
<path d="M18.5782 11.7151C20.4739 13.6107 20.4739 16.6828 18.5782 18.5783C17.6317 19.5261 16.3891 20 15.1478 20C13.9064 20 12.6638 19.5261 11.7159 18.5783L3.13701 10L10.0007 3.13819L11.7159 1.42167C13.6116 -0.473889 16.6839 -0.473889 18.5782 1.42167C19.526 2.36948 19.9999 3.61066 19.9999 4.85329C19.9999 6.09592 19.526 7.33709 18.5782 8.28491L16.8629 10L18.5782 11.7151Z" fill="white"/>
<path d="M10.0008 16.8632L8.28413 18.5783C6.38844 20.4739 3.31617 20.4739 1.42187 18.5783C0.473986 17.6305 8.11844e-05 16.3893 8.11844e-05 15.1467C8.11844e-05 13.9041 0.473986 12.6629 1.42187 11.7151L3.1371 9.99997L10.0008 16.8632Z" fill="#A8A8A8"/>
</g>
</svg>
